<svg aria-hidden="true" style="position: absolute; width: 0; height: 0; overflow: hidden;" version="1.1" xmlns="http://www.w3.org/2000/svg" xmlns:xlink="http://www.w3.org/1999/xlink">
<defs>
<symbol id="icon-multiple" viewBox="0 0 32 32">
<path fill="#fff4df" style="fill: var(--color1, #fff4df)" d="M16 0c8.837 0 16 7.163 16 16s-7.163 16-16 16c-8.837 0-16-7.163-16-16s7.163-16 16-16z"></path>
<path fill="#f6b83d" style="fill: var(--color2, #f6b83d)" d="M13.417 12.596c-0.574-0.224-1.206-0.253-1.798-0.081s-1.111 0.534-1.476 1.031c-0.365 0.497-0.556 1.1-0.543 1.716s0.229 1.211 0.614 1.692c0.386 0.481 0.919 0.821 1.518 0.968s1.229 0.092 1.793-0.156c0.564-0.248 1.031-0.676 1.327-1.216s0.406-1.163 0.312-1.773c-0.008-0.052-0.006-0.105 0.007-0.156s0.035-0.099 0.066-0.141c0.031-0.042 0.070-0.078 0.115-0.105s0.095-0.045 0.147-0.053c0.052-0.008 0.105-0.006 0.156 0.007s0.099 0.035 0.141 0.066c0.042 0.031 0.078 0.070 0.105 0.115s0.045 0.095 0.053 0.147c0.121 0.783-0.021 1.584-0.402 2.279s-0.981 1.244-1.706 1.563c-0.725 0.319-1.536 0.389-2.305 0.201s-1.455-0.626-1.951-1.244c-0.496-0.618-0.773-1.383-0.79-2.175s0.229-1.568 0.698-2.206c0.469-0.639 1.136-1.104 1.897-1.325s1.574-0.184 2.312 0.104c0.050 0.019 0.095 0.047 0.134 0.083s0.070 0.080 0.091 0.128c0.022 0.048 0.033 0.101 0.035 0.154s-0.008 0.106-0.027 0.155c-0.019 0.049-0.048 0.094-0.085 0.132s-0.081 0.068-0.129 0.089c-0.049 0.021-0.101 0.032-0.154 0.033s-0.105-0.009-0.155-0.029z"></path>
<path fill="#f6b83d" style="fill: var(--color2, #f6b83d)" d="M11.998 22v-3.199c0-0.106 0.042-0.208 0.117-0.283s0.177-0.117 0.283-0.117c0.106 0 0.208 0.042 0.283 0.117s0.117 0.177 0.117 0.283v3.199c0 0.106-0.042 0.208-0.117 0.283s-0.177 0.117-0.283 0.117c-0.106 0-0.208-0.042-0.283-0.117s-0.117-0.177-0.117-0.283z"></path>
<path fill="#f6b83d" style="fill: var(--color2, #f6b83d)" d="M10.799 20.001c0-0.106 0.042-0.208 0.117-0.283s0.177-0.117 0.283-0.117h2.399c0.106 0 0.208 0.042 0.283 0.117s0.117 0.177 0.117 0.283c0 0.106-0.042 0.208-0.117 0.283s-0.177 0.117-0.283 0.117h-2.399c-0.106 0-0.208-0.042-0.283-0.117s-0.117-0.177-0.117-0.283zM17.957 12.509c-0.443-0.125-0.91-0.139-1.36-0.040s-0.868 0.307-1.218 0.606-0.621 0.68-0.789 1.109c-0.168 0.429-0.227 0.892-0.173 1.35 0.006 0.052 0.003 0.105-0.012 0.156s-0.038 0.098-0.071 0.14c-0.032 0.041-0.073 0.076-0.119 0.102s-0.096 0.042-0.149 0.049c-0.052 0.006-0.105 0.002-0.156-0.012s-0.098-0.039-0.139-0.071c-0.041-0.033-0.076-0.073-0.101-0.119s-0.042-0.097-0.048-0.149c-0.093-0.787 0.076-1.583 0.481-2.264s1.024-1.209 1.76-1.503c0.736-0.294 1.548-0.336 2.311-0.121s1.433 0.676 1.907 1.311c0.474 0.635 0.725 1.409 0.714 2.201s-0.283 1.559-0.774 2.181-1.174 1.064-1.942 1.259c-0.768 0.194-1.579 0.13-2.307-0.184-0.048-0.021-0.092-0.051-0.128-0.088s-0.065-0.082-0.085-0.131c-0.039-0.098-0.038-0.209 0.004-0.306s0.121-0.174 0.219-0.213c0.099-0.039 0.209-0.038 0.306 0.004 0.352 0.152 0.731 0.229 1.114 0.228s0.762-0.080 1.113-0.234c0.351-0.153 0.667-0.377 0.928-0.657s0.462-0.611 0.59-0.972c0.128-0.361 0.181-0.744 0.155-1.127s-0.13-0.755-0.306-1.095-0.42-0.641-0.717-0.883c-0.297-0.242-0.64-0.421-1.009-0.525z"></path>
<path fill="#f6b83d" style="fill: var(--color2, #f6b83d)" d="M19.513 13.286c-0.075-0.075-0.117-0.177-0.117-0.283s0.042-0.208 0.117-0.283l2.999-2.999c0.037-0.038 0.081-0.069 0.13-0.090s0.101-0.032 0.154-0.032c0.053-0 0.106 0.010 0.155 0.030s0.094 0.050 0.131 0.087c0.038 0.038 0.067 0.082 0.087 0.131s0.030 0.102 0.030 0.155c-0 0.053-0.012 0.106-0.032 0.154s-0.051 0.093-0.090 0.13l-2.999 2.999c-0.075 0.075-0.177 0.117-0.283 0.117s-0.208-0.042-0.283-0.117z"></path>
<path fill="#f6b83d" style="fill: var(--color2, #f6b83d)" d="M22.764 12.404c-0.053-0.001-0.104-0.012-0.153-0.032s-0.092-0.051-0.129-0.088c-0.037-0.038-0.066-0.082-0.085-0.131s-0.029-0.101-0.028-0.153l0.020-1.589-1.589 0.020c-0.106 0.001-0.208-0.039-0.284-0.113s-0.119-0.175-0.121-0.281c-0.001-0.106 0.039-0.208 0.113-0.284s0.175-0.119 0.281-0.121l2.409-0.030-0.030 2.409c-0.001 0.052-0.012 0.104-0.032 0.153s-0.051 0.092-0.088 0.129-0.082 0.066-0.131 0.085c-0.049 0.020-0.101 0.029-0.153 0.028z"></path>
</symbol>
<symbol id="icon-male" viewBox="0 0 32 32">
<path fill="#54adff" style="fill: var(--color3, #54adff)" opacity="0.1" d="M16 0c8.837 0 16 7.163 16 16s-7.163 16-16 16c-8.837 0-16-7.163-16-16s7.163-16 16-16z"></path>
<path fill="none" stroke="#54adff" style="stroke: var(--color3, #54adff)" stroke-linejoin="round" stroke-linecap="round" stroke-miterlimit="4" stroke-width="1.2" d="M16 15.2c-2.209 0-4 1.791-4 4s1.791 4 4 4c2.209 0 4-1.791 4-4s-1.791-4-4-4zM16 15.2v-6.4M16 8.8l3.2 3.2M16 8.8l-3.2 3.2"></path>
</symbol>
<symbol id="icon-female" viewBox="0 0 32 32">
<path fill="#f43f5e" style="fill: var(--color4, #f43f5e)" opacity="0.1" d="M16 0c8.837 0 16 7.163 16 16s-7.163 16-16 16c-8.837 0-16-7.163-16-16s7.163-16 16-16z"></path>
<path fill="none" stroke="#f43f5e" style="stroke: var(--color4, #f43f5e)" stroke-linejoin="round" stroke-linecap="round" stroke-miterlimit="4" stroke-width="1.2" d="M16 16.8c2.209 0 4-1.791 4-4s-1.791-4-4-4c-2.209 0-4 1.791-4 4s1.791 4 4 4zM16 16.8v6.4M13.6 20.8h4.8"></path>
</symbol>
<symbol id="icon-iconprofile" viewBox="0 0 32 32">
<path fill="#fff4df" style="fill: var(--color1, #fff4df)" d="M32 16c0 8.837-7.163 16-16 16s-16-7.163-16-16c0-8.837 7.163-16 16-16s16 7.163 16 16z"></path>
<path fill="#f6b83d" style="fill: var(--color2, #f6b83d); stroke: var(--color2, #f6b83d)" stroke="#f6b83d" stroke-linejoin="round" stroke-linecap="round" stroke-miterlimit="4" stroke-width="1.28" d="M16 17.92c-2.029 0-3.833 0.98-4.982 2.5-0.247 0.327-0.371 0.491-0.367 0.712 0.003 0.171 0.11 0.386 0.245 0.492 0.174 0.137 0.415 0.137 0.897 0.137h8.413c0.482 0 0.723 0 0.897-0.137 0.134-0.105 0.242-0.321 0.245-0.492 0.004-0.221-0.12-0.385-0.367-0.712-1.149-1.52-2.953-2.5-4.982-2.5z"></path>
<path fill="#f6b83d" style="fill: var(--color2, #f6b83d); stroke: var(--color2, #f6b83d)" stroke="#f6b83d" stroke-linejoin="round" stroke-linecap="round" stroke-miterlimit="4" stroke-width="1.28" d="M16 16c1.591 0 2.88-1.289 2.88-2.88s-1.289-2.88-2.88-2.88c-1.591 0-2.88 1.289-2.88 2.88s1.289 2.88 2.88 2.88z"></path>
</symbol>
<symbol id="icon-star" viewBox="0 0 32 32">
<path fill="#ffc531" style="fill: var(--color5, #ffc531); stroke: var(--color5, #ffc531)" stroke="#ffc531" stroke-linejoin="miter" stroke-linecap="butt" stroke-miterlimit="4" stroke-width="2.4" d="M12.4 9.394l3.6-6.822 3.6 6.822c0.318 0.603 0.899 1.025 1.571 1.141l7.601 1.315-5.376 5.532c-0.475 0.489-0.697 1.171-0.6 1.846l1.098 7.635-6.922-3.404c-0.612-0.301-1.329-0.301-1.941 0l-6.922 3.404 1.098-7.635c0.097-0.675-0.125-1.357-0.6-1.846l-5.376-5.532 7.601-1.315c0.672-0.116 1.252-0.538 1.571-1.141zM29.035 11.579v0zM7.767 27.031c0 0 0 0 0 0h-0z"></path>
</symbol>
<symbol id="icon-calendar" viewBox="0 0 32 32">
<path stroke-linejoin="round" stroke-linecap="round" stroke-miterlimit="4" stroke-width="2.88" d="M25.333 5.333h-18.667c-1.473 0-2.667 1.194-2.667 2.667v18.667c0 1.473 1.194 2.667 2.667 2.667h18.667c1.473 0 2.667-1.194 2.667-2.667v-18.667c0-1.473-1.194-2.667-2.667-2.667z"></path>
<path stroke-linejoin="round" stroke-linecap="round" stroke-miterlimit="4" stroke-width="2.88" d="M21.333 2.667v5.333"></path>
<path stroke-linejoin="round" stroke-linecap="round" stroke-miterlimit="4" stroke-width="2.88" d="M10.667 2.667v5.333"></path>
<path stroke-linejoin="round" stroke-linecap="round" stroke-miterlimit="4" stroke-width="2.88" d="M4 13.333h24"></path>
</symbol>
<symbol id="icon-arrow_down" viewBox="0 0 32 32">
<path stroke-linejoin="round" stroke-linecap="round" stroke-miterlimit="4" stroke-width="3.5556" d="M8 12l8 8 8-8"></path>
</symbol>
<symbol id="icon-check_correct" viewBox="0 0 32 32">
<path fill="none" stroke="#08aa83" style="stroke: var(--color6, #08aa83)" stroke-linejoin="round" stroke-linecap="round" stroke-miterlimit="4" stroke-width="2.1818" d="M26.667 9.333l-14.667 14.667-6.667-6.667"></path>
</symbol>
<symbol id="icon-search" viewBox="0 0 32 32">
<path stroke-linejoin="round" stroke-linecap="round" stroke-miterlimit="4" stroke-width="3.5556" d="M14.667 25.333c5.891 0 10.667-4.776 10.667-10.667s-4.776-10.667-10.667-10.667c-5.891 0-10.667 4.776-10.667 10.667s4.776 10.667 10.667 10.667z"></path>
<path stroke-linejoin="round" stroke-linecap="round" stroke-miterlimit="4" stroke-width="3.5556" d="M28.001 28l-5.8-5.8"></path>
</symbol>
<symbol id="icon-close_cross" viewBox="0 0 32 32">
<path fill="none" stroke="#ef2447" style="stroke: var(--color7, #ef2447)" stroke-linejoin="round" stroke-linecap="round" stroke-miterlimit="4" stroke-width="2.9091" d="M25.333 6.667l-18.667 18.667M6.666 6.667l18.667 18.667"></path>
</symbol>
<symbol id="icon-eye" viewBox="0 0 32 32">
<path fill="none" stroke="#f6b83d" style="stroke: var(--color2, #f6b83d)" stroke-linejoin="round" stroke-linecap="round" stroke-miterlimit="4" stroke-width="2.9091" d="M1.332 16c0 0 5.333-10.667 14.667-10.667s14.667 10.667 14.667 10.667-5.333 10.667-14.667 10.667c-9.333 0-14.667-10.667-14.667-10.667z"></path>
<path fill="none" stroke="#f6b83d" style="stroke: var(--color2, #f6b83d)" stroke-linejoin="round" stroke-linecap="round" stroke-miterlimit="4" stroke-width="2.9091" d="M16 20c2.209 0 4-1.791 4-4s-1.791-4-4-4c-2.209 0-4 1.791-4 4s1.791 4 4 4z"></path>
</symbol>
<symbol id="icon-eye_close" viewBox="0 0 32 32">
<path fill="none" stroke="#f6b83d" style="stroke: var(--color2, #f6b83d)" stroke-linejoin="round" stroke-linecap="round" stroke-miterlimit="4" stroke-width="2.9091" d="M23.922 23.92c-2.279 1.737-5.055 2.7-7.92 2.747-9.333 0-14.667-10.667-14.667-10.667 1.659-3.091 3.959-5.791 6.747-7.92M13.202 5.653c0.918-0.215 1.857-0.322 2.8-0.32 9.333 0 14.667 10.667 14.667 10.667-0.809 1.514-1.775 2.94-2.88 4.253M18.828 18.827c-0.366 0.393-0.808 0.708-1.298 0.927s-1.020 0.336-1.557 0.346c-0.537 0.009-1.071-0.089-1.569-0.291s-0.951-0.5-1.33-0.88c-0.38-0.38-0.679-0.832-0.88-1.33s-0.3-1.032-0.29-1.569c0.009-0.537 0.127-1.067 0.346-1.557s0.534-0.932 0.927-1.298"></path>
<path fill="none" stroke="#f6b83d" style="stroke: var(--color2, #f6b83d)" stroke-linejoin="round" stroke-linecap="round" stroke-miterlimit="4" stroke-width="2.9091" d="M1.335 1.333l29.333 29.333"></path>
</symbol>
<symbol id="icon-heartheart" viewBox="0 0 32 32">
<path fill="none" stroke="#f6b83d" style="stroke: var(--color1, #f6b83d)" stroke-linejoin="round" stroke-linecap="round" stroke-miterlimit="4" stroke-width="2.6667" d="M27.788 6.147c-0.681-0.681-1.49-1.222-2.38-1.591s-1.844-0.559-2.807-0.559c-0.963 0-1.917 0.19-2.807 0.559s-1.699 0.909-2.38 1.591l-1.413 1.413-1.413-1.413c-1.376-1.376-3.241-2.148-5.187-2.148s-3.811 0.773-5.187 2.148c-1.376 1.376-2.148 3.241-2.148 5.187s0.773 3.811 2.148 5.187l11.787 11.787 11.787-11.787c0.681-0.681 1.222-1.49 1.591-2.38s0.558-1.844 0.558-2.807-0.19-1.917-0.558-2.807c-0.369-0.89-0.909-1.699-1.591-2.38z"></path>
</symbol>
</defs>
</svg>
